<?xml version="1.0" encoding="utf-8"?>
<!-- Generator: Adobe Illustrator 16.0.4, SVG Export Plug-In . SVG Version: 6.00 Build 0)  -->
<!DOCTYPE svg PUBLIC "-//W3C//DTD SVG 1.1//EN" "http://www.w3.org/Graphics/SVG/1.1/DTD/svg11.dtd">
<svg version="1.1" id="Layer_1" xmlns="http://www.w3.org/2000/svg" xmlns:xlink="http://www.w3.org/1999/xlink" x="0px" y="0px"
	 width="360.378px" height="89.281px" viewBox="326.119 194.383 360.378 89.281"
	 enable-background="new 326.119 194.383 360.378 89.281" xml:space="preserve">
	<defs>
		<style>
			#subtitle{
				strike-dasharray: 800;
				stroke-dashofffset:0;
				-webkit-animation: dash 2s linear forwards;
				-o-animation: dash 2s linear forwards;
				-moz-animation: dash 2s linear forwards;
				animation: dash 2s linear forwards;
			}
			
			@webkit-keyframes dash{
				from{
					stroke-dashoffset: 800;
				}
				to{
					stroke-dashoffset: 800;
				}
			}
			
		</style>
	</defs>
<g>
	<path id="subtitle" fill="#FF8C00" d="M358.983,241.039c0.32,0.512,0.48,1.216,0.48,2.112c0,1.707-0.406,3.03-1.216,3.968
		c-1.835,2.262-3.84,4.118-6.016,5.568c-2.176,1.451-4.672,2.176-7.488,2.176c-8.704,0-13.056-6.122-13.056-18.368
		c0-1.877,0.064-3.776,0.192-5.696h-2.496c-1.28,0-2.144-0.234-2.592-0.704c-0.448-0.469-0.672-1.216-0.672-2.24
		c0-2.389,0.96-3.584,2.88-3.584h3.648c0.725-4.693,1.834-8.981,3.328-12.864c1.493-3.882,3.296-6.976,5.408-9.28
		c2.112-2.304,4.384-3.456,6.816-3.456c1.792,0,3.2,0.79,4.224,2.368c1.024,1.579,1.536,3.563,1.536,5.952
		c0,6.614-2.774,12.374-8.32,17.28h7.168c0.682,0,1.173,0.15,1.472,0.448c0.298,0.299,0.448,0.854,0.448,1.664
		c0,2.944-2.411,4.416-7.232,4.416h-7.808c-0.086,2.134-0.128,3.798-0.128,4.992c0,4.438,0.522,7.552,1.568,9.344
		c1.045,1.792,2.698,2.688,4.96,2.688c1.834,0,3.456-0.554,4.864-1.664c1.408-1.109,3.072-2.773,4.992-4.992
		c0.512-0.597,1.088-0.896,1.728-0.896C358.225,240.271,358.663,240.527,358.983,241.039z M344.327,207.215
		c-0.79,1.6-1.536,3.819-2.24,6.656c-0.704,2.838-1.291,5.984-1.76,9.44c2.517-2.176,4.405-4.618,5.664-7.328
		c1.258-2.709,1.888-5.173,1.888-7.392c0-2.517-0.47-3.776-1.408-3.776C345.831,204.815,345.116,205.615,344.327,207.215z"/>
	<path fill="#FF8C00" d="M358.662,252.975c-1.771-1.258-3.104-2.912-4-4.96c-0.896-2.048-1.344-4.245-1.344-6.592
		c0-3.242,0.608-6.133,1.824-8.672c1.216-2.538,2.869-4.522,4.96-5.952c2.09-1.429,4.437-2.144,7.04-2.144
		c2.517,0,4.672,0.63,6.464,1.888c1.792,1.259,3.136,2.912,4.032,4.96s1.344,4.246,1.344,6.592c0,3.243-0.619,6.134-1.856,8.672
		c-1.238,2.539-2.912,4.523-5.024,5.952c-2.112,1.43-4.448,2.144-7.008,2.144C362.576,254.863,360.432,254.234,358.662,252.975z
		 M369.478,245.583c1.002-1.578,1.504-3.882,1.504-6.912c0-2.346-0.427-4.117-1.28-5.312c-0.854-1.194-1.878-1.792-3.072-1.792
		c-1.536,0-2.806,0.779-3.808,2.336c-1.003,1.558-1.504,3.872-1.504,6.944c0,2.432,0.426,4.224,1.28,5.376
		c0.853,1.152,1.92,1.728,3.2,1.728C367.248,247.951,368.475,247.162,369.478,245.583z"/>
	<path fill="#FF8C00" d="M401.349,252.303c-0.662-1.706-0.992-4.437-0.992-8.192c0-5.546,0.789-10.816,2.368-15.808
		c0.384-1.237,1.013-2.144,1.888-2.72c0.874-0.576,2.101-0.864,3.68-0.864c0.853,0,1.45,0.107,1.792,0.32
		c0.341,0.214,0.512,0.619,0.512,1.216c0,0.683-0.32,2.219-0.96,4.608c-0.427,1.707-0.768,3.19-1.024,4.448
		c-0.256,1.259-0.47,2.827-0.64,4.704c1.152-3.328,2.528-6.144,4.128-8.448c1.6-2.304,3.242-4.021,4.928-5.152
		c1.685-1.13,3.274-1.696,4.768-1.696c1.493,0,2.549,0.342,3.168,1.024c0.618,0.683,0.928,1.728,0.928,3.136
		c0,1.366-0.405,3.84-1.216,7.424c-0.342,1.536-0.576,2.688-0.704,3.456c2.134-5.248,4.501-9.066,7.104-11.456
		c2.602-2.389,5.034-3.584,7.296-3.584c2.773,0,4.16,1.387,4.16,4.16c0,1.664-0.471,4.672-1.408,9.024
		c-0.811,3.712-1.216,6.166-1.216,7.36c0,1.707,0.618,2.56,1.855,2.56c0.854,0,1.866-0.522,3.04-1.568
		c1.173-1.045,2.741-2.741,4.704-5.088c0.513-0.597,1.088-0.896,1.729-0.896c0.554,0,0.991,0.256,1.312,0.768
		c0.32,0.512,0.48,1.216,0.48,2.112c0,1.707-0.406,3.03-1.216,3.968c-1.835,2.262-3.809,4.118-5.921,5.568
		c-2.111,1.451-4.512,2.176-7.199,2.176c-2.177,0-3.819-0.629-4.929-1.888c-1.109-1.258-1.664-3.082-1.664-5.472
		c0-1.194,0.299-3.328,0.896-6.4c0.554-2.688,0.832-4.544,0.832-5.568c0-0.682-0.235-1.024-0.704-1.024
		c-0.555,0-1.344,0.715-2.368,2.144c-1.023,1.43-2.048,3.318-3.072,5.664c-1.023,2.347-1.855,4.822-2.495,7.424
		c-0.471,2.048-1.015,3.414-1.633,4.096c-0.619,0.683-1.61,1.024-2.976,1.024c-1.408,0-2.464-0.672-3.168-2.016
		c-0.704-1.344-1.056-2.976-1.056-4.896c0-1.621,0.213-3.968,0.64-7.04c0.341-2.73,0.512-4.522,0.512-5.376
		c0-0.682-0.235-1.024-0.704-1.024c-0.64,0-1.451,0.768-2.432,2.304c-0.982,1.536-1.931,3.499-2.848,5.888
		c-0.918,2.39-1.654,4.736-2.208,7.04c-0.47,2.006-1.014,3.36-1.632,4.064c-0.619,0.704-1.59,1.056-2.912,1.056
		C403.151,254.863,402.01,254.01,401.349,252.303z"/>
	<path fill="#FF8C00" d="M472.292,225.103c0.385,0.256,0.576,0.683,0.576,1.28c0,1.024-0.556,4.672-1.664,10.944
		c-0.981,6.016-1.558,9.579-1.729,10.688c-1.579,10.965-3.755,19.648-6.527,26.048c-2.774,6.399-6.464,9.601-11.072,9.601
		c-2.176,0-3.947-0.672-5.312-2.018c-1.366-1.345-2.049-3.104-2.049-5.279c0-2.006,0.458-4.054,1.376-6.144
		c0.917-2.091,2.624-4.491,5.12-7.2c2.496-2.71,6.026-5.814,10.592-9.312l0.192-1.472c0.298-1.578,0.64-3.84,1.024-6.784
		c-0.854,3.072-2.049,5.408-3.584,7.008c-1.536,1.6-3.158,2.4-4.864,2.4c-1.92,0-3.488-0.885-4.704-2.656
		c-1.216-1.77-1.824-3.978-1.824-6.624c0-3.2,0.213-6.133,0.641-8.8c0.426-2.666,1.13-5.493,2.111-8.48
		c0.426-1.28,1.024-2.197,1.792-2.752c0.769-0.554,1.984-0.832,3.648-0.832c0.938,0,1.589,0.15,1.952,0.448
		c0.361,0.299,0.544,0.747,0.544,1.344c0,0.342-0.235,1.494-0.704,3.456c-0.427,1.579-0.769,3.008-1.024,4.288
		c-0.342,1.75-0.64,3.424-0.896,5.024s-0.385,2.912-0.385,3.936c0,1.622,0.448,2.432,1.345,2.432c0.64,0,1.439-0.64,2.399-1.92
		c0.96-1.28,1.984-3.221,3.072-5.824c1.088-2.602,2.145-5.802,3.168-9.6c0.341-1.28,0.864-2.197,1.568-2.752
		c0.704-0.554,1.76-0.832,3.168-0.832C471.226,224.719,471.908,224.847,472.292,225.103z M456.165,273.743
		c1.322-2.475,2.645-6.592,3.968-12.352c-3.286,2.773-5.664,5.301-7.136,7.584c-1.472,2.282-2.208,4.277-2.208,5.984
		c0,0.725,0.138,1.322,0.416,1.792c0.277,0.469,0.736,0.704,1.376,0.704C453.646,277.455,454.841,276.217,456.165,273.743z"/>
	<path fill="#FF8C00" d="M541.924,235.023c0.641,0,1.13,0.214,1.473,0.64c0.341,0.427,0.513,1.003,0.513,1.728
		c0,1.323-0.257,2.358-0.77,3.104c-0.512,0.747-1.279,1.291-2.304,1.632c-1.963,0.64-4.054,0.96-6.271,0.96
		c-1.879,0-3.647-0.256-5.312-0.768c-1.238,2.006-2.604,4.075-4.096,6.208c-1.707,2.432-3.169,4.096-4.385,4.992
		c-1.217,0.896-2.593,1.344-4.129,1.344c-1.707,0-2.998-0.661-3.871-1.984c-0.875-1.322-1.42-3.498-1.633-6.528l-0.319-4.672
		c-1.322,3.584-2.507,6.315-3.553,8.192c-1.046,1.878-2.091,3.179-3.136,3.904c-1.046,0.726-2.271,1.088-3.68,1.088
		c-1.75,0-3.126-0.682-4.128-2.048c-1.004-1.365-1.633-3.52-1.89-6.464c-0.512-5.973-0.768-11.2-0.768-15.68v-2.24
		c0.042-1.408,0.426-2.389,1.151-2.944c0.726-0.554,1.812-0.832,3.265-0.832c1.108,0,1.93,0.246,2.464,0.736
		c0.533,0.491,0.8,1.312,0.8,2.464c0,4.907,0.299,11.286,0.896,19.136c2.899-6.101,5.566-12.458,8-19.072
		c0.469-1.28,1.033-2.144,1.695-2.592c0.66-0.448,1.461-0.672,2.399-0.672c1.152,0,1.952,0.235,2.4,0.704
		c0.446,0.47,0.672,1.302,0.672,2.496c0,4.907,0.298,11.286,0.896,19.136c2.562-3.797,4.48-6.826,5.761-9.088
		c-0.641-1.237-0.96-2.709-0.96-4.416c0-1.45,0.319-2.858,0.96-4.224c0.641-1.365,1.515-2.474,2.624-3.328
		c1.108-0.853,2.367-1.28,3.775-1.28c1.237,0,2.24,0.438,3.008,1.312c0.77,0.875,1.152,2.144,1.152,3.808
		c0,1.92-0.512,4.118-1.536,6.592c1.621-0.085,3.776-0.405,6.464-0.96l1.729-0.32C541.412,235.045,541.625,235.023,541.924,235.023z
		"/>
	<path fill="#FF8C00" d="M568.195,241.039c0.319,0.512,0.479,1.216,0.479,2.112c0,1.707-0.406,3.03-1.216,3.968
		c-1.579,1.92-3.809,3.691-6.688,5.312c-2.881,1.622-5.964,2.432-9.248,2.432c-4.479,0-7.958-1.216-10.433-3.648
		c-2.476-2.432-3.712-5.76-3.712-9.984c0-2.944,0.618-5.685,1.855-8.224c1.236-2.538,2.953-4.554,5.151-6.048
		c2.197-1.493,4.683-2.24,7.456-2.24c2.475,0,4.458,0.736,5.952,2.208c1.493,1.472,2.239,3.467,2.239,5.984
		c0,2.944-1.057,5.472-3.168,7.584c-2.111,2.112-5.687,3.787-10.721,5.024c1.066,1.963,3.094,2.944,6.08,2.944
		c1.92,0,4.106-0.672,6.561-2.016c2.453-1.344,4.576-3.104,6.368-5.28c0.513-0.597,1.088-0.896,1.729-0.896
		C567.438,240.271,567.876,240.527,568.195,241.039z M546.756,233.743c-1.088,1.835-1.632,4.054-1.632,6.656v0.128
		c2.517-0.597,4.501-1.493,5.951-2.688c1.45-1.194,2.177-2.581,2.177-4.16c0-0.81-0.225-1.461-0.673-1.952
		c-0.447-0.49-1.056-0.736-1.823-0.736C549.177,230.991,547.844,231.909,546.756,233.743z"/>
	<path fill="#FF8C00" d="M566.851,249.935c-1.94-3.285-2.911-8.042-2.911-14.272c0-5.504,0.683-11.488,2.049-17.952
		c1.363-6.464,3.358-11.968,5.982-16.512c2.624-4.544,5.749-6.816,9.376-6.816c1.962,0,3.541,0.843,4.736,2.528
		c1.194,1.686,1.792,3.872,1.792,6.56c0,3.499-0.662,6.976-1.984,10.432c-1.321,3.456-3.52,7.083-6.592,10.88
		c2.09,0.171,3.914,0.875,5.473,2.112c1.558,1.238,2.752,2.838,3.584,4.8c0.831,1.963,1.247,4.096,1.247,6.4
		c0,3.2-0.63,6.08-1.888,8.64c-1.259,2.56-2.912,4.555-4.96,5.984c-2.048,1.43-4.246,2.144-6.592,2.144
		C571.896,254.863,568.792,253.221,566.851,249.935z M580.099,245.583c1.002-1.578,1.505-3.882,1.505-6.912
		c0-2.346-0.428-4.117-1.279-5.312c-0.854-1.194-1.878-1.792-3.072-1.792c-1.494,0-2.752,0.768-3.776,2.304
		c-1.022,1.536-1.535,3.776-1.535,6.72c0,2.56,0.427,4.427,1.279,5.6c0.854,1.174,1.92,1.76,3.2,1.76
		C577.869,247.951,579.096,247.162,580.099,245.583z M579.139,215.471c1.687-3.946,2.528-7.456,2.528-10.528
		c0-1.365-0.16-2.41-0.479-3.136c-0.319-0.725-0.759-1.088-1.312-1.088c-0.854,0-1.782,1.271-2.784,3.808
		c-1.003,2.539-1.931,5.984-2.784,10.336c-0.853,4.352-1.494,9.11-1.92,14.272C575.203,223.973,577.453,219.418,579.139,215.471z"/>
	<path fill="#FF8C00" d="M600.387,254.735c-1.174-1.024-1.76-2.176-1.76-3.456c0-1.109,0.405-2.069,1.216-2.88
		c0.812-0.81,2.005-1.216,3.584-1.216c0.556,0,1.205,0.054,1.952,0.16c0.746,0.107,1.312,0.182,1.696,0.224
		c-0.043-1.109-0.288-2.154-0.736-3.136c-0.448-0.981-1.014-1.93-1.696-2.848c-0.683-0.917-1.321-1.717-1.92-2.4
		c-1.321,2.518-2.635,4.608-3.936,6.272c-1.302,1.664-2.72,3.243-4.256,4.736c-0.77,0.768-1.579,1.152-2.434,1.152
		c-0.683,0-1.236-0.245-1.664-0.736c-0.426-0.49-0.64-1.098-0.64-1.824c0-0.853,0.299-1.642,0.896-2.368l0.832-1.024
		c2.346-2.901,4.115-5.29,5.312-7.168c0.725-1.237,1.578-2.89,2.561-4.96c0.98-2.069,1.94-4.213,2.881-6.432
		c0.81-1.877,2.496-2.816,5.056-2.816c1.194,0,2.026,0.107,2.496,0.32c0.469,0.214,0.704,0.555,0.704,1.024
		c0,0.256-0.086,0.662-0.256,1.216c-0.172,0.555-0.406,1.11-0.704,1.664c-0.77,1.536-1.152,2.838-1.152,3.904
		c0,0.64,0.224,1.344,0.672,2.112s1.143,1.728,2.08,2.88c1.365,1.792,2.4,3.318,3.104,4.576c0.704,1.259,1.056,2.635,1.056,4.128
		c0,0.427-0.043,1.024-0.128,1.792c2.09-0.81,4.544-2.965,7.36-6.464c0.512-0.597,1.088-0.896,1.728-0.896
		c0.554,0,0.992,0.256,1.312,0.768c0.319,0.512,0.479,1.216,0.479,2.112c0,1.622-0.406,2.944-1.216,3.968
		c-2.134,2.646-4.171,4.448-6.112,5.408c-1.94,0.96-4.342,1.483-7.2,1.568c-1.707,1.45-3.732,2.176-6.08,2.176
		C603.256,256.271,601.56,255.759,600.387,254.735z"/>
	<path fill="#FF8C00" d="M622.723,251.919c-1.26-1.962-1.889-4.565-1.889-7.808c0-1.92,0.245-4.384,0.736-7.392
		c0.49-3.008,1.12-5.812,1.888-8.416c0.384-1.365,0.896-2.304,1.536-2.816c0.64-0.512,1.664-0.768,3.072-0.768
		c2.176,0,3.264,0.726,3.264,2.176c0,1.067-0.406,3.542-1.216,7.424c-1.024,4.694-1.536,7.872-1.536,9.536
		c0,1.28,0.17,2.262,0.512,2.944c0.342,0.683,0.917,1.024,1.729,1.024c0.768,0,1.728-0.533,2.88-1.6
		c1.152-1.066,2.688-2.752,4.607-5.056c0.513-0.597,1.089-0.896,1.729-0.896c0.554,0,0.992,0.256,1.312,0.768
		c0.32,0.512,0.48,1.216,0.48,2.112c0,1.707-0.406,3.03-1.216,3.968c-4.226,5.163-8.171,7.744-11.84,7.744
		C625.996,254.863,623.98,253.882,622.723,251.919z M625.25,219.247c-0.896-0.832-1.344-1.994-1.344-3.488
		c0-1.493,0.586-2.741,1.76-3.744c1.173-1.002,2.634-1.504,4.384-1.504c1.578,0,2.858,0.384,3.841,1.152
		c0.98,0.768,1.473,1.856,1.473,3.264c0,1.707-0.556,3.062-1.664,4.064c-1.11,1.003-2.582,1.504-4.416,1.504
		C627.49,220.495,626.146,220.079,625.25,219.247z"/>
	<path fill="#FF8C00" d="M666.497,241.039c0.32,0.512,0.479,1.216,0.479,2.112c0,1.707-0.405,3.03-1.216,3.968
		c-1.835,2.262-3.841,4.118-6.017,5.568c-2.176,1.451-4.672,2.176-7.487,2.176c-8.704,0-13.057-6.122-13.057-18.368
		c0-1.877,0.063-3.776,0.191-5.696h-2.495c-1.28,0-2.146-0.234-2.593-0.704c-0.447-0.469-0.672-1.216-0.672-2.24
		c0-2.389,0.96-3.584,2.88-3.584h3.647c0.726-4.693,1.834-8.981,3.328-12.864c1.493-3.882,3.296-6.976,5.407-9.28
		c2.112-2.304,4.385-3.456,6.815-3.456c1.792,0,3.2,0.79,4.225,2.368c1.023,1.579,1.536,3.563,1.536,5.952
		c0,6.614-2.773,12.374-8.319,17.28h7.168c0.682,0,1.173,0.15,1.472,0.448c0.299,0.299,0.448,0.854,0.448,1.664
		c0,2.944-2.411,4.416-7.231,4.416h-7.809c-0.086,2.134-0.128,3.798-0.128,4.992c0,4.438,0.521,7.552,1.567,9.344
		c1.045,1.792,2.697,2.688,4.96,2.688c1.834,0,3.456-0.554,4.864-1.664c1.407-1.109,3.071-2.773,4.991-4.992
		c0.513-0.597,1.088-0.896,1.729-0.896C665.739,240.271,666.178,240.527,666.497,241.039z M651.842,207.215
		c-0.79,1.6-1.536,3.819-2.24,6.656c-0.703,2.838-1.291,5.984-1.76,9.44c2.518-2.176,4.404-4.618,5.663-7.328
		c1.259-2.709,1.889-5.173,1.889-7.392c0-2.517-0.471-3.776-1.407-3.776C653.346,204.815,652.63,205.615,651.842,207.215z"/>
	<path fill="#FF8C00" d="M686.017,242.959c0.32,0.512,0.48,1.216,0.48,2.112c0,1.536-0.363,2.859-1.088,3.968
		c-1.195,1.835-2.765,3.264-4.704,4.288c-1.942,1.024-4.257,1.536-6.944,1.536c-4.096,0-7.274-1.226-9.536-3.68
		c-2.262-2.453-3.392-5.77-3.392-9.952c0-2.944,0.618-5.685,1.854-8.224c1.237-2.538,2.954-4.554,5.152-6.048
		c2.197-1.493,4.682-2.24,7.456-2.24c2.474,0,4.458,0.736,5.952,2.208c1.493,1.472,2.239,3.467,2.239,5.984
		c0,2.944-1.057,5.472-3.168,7.584c-2.111,2.112-5.707,3.787-10.783,5.024c1.022,1.963,2.752,2.944,5.184,2.944
		c1.749,0,3.189-0.405,4.32-1.216c1.13-0.81,2.44-2.176,3.936-4.096c0.513-0.64,1.089-0.96,1.729-0.96
		C685.259,242.191,685.696,242.447,686.017,242.959z M670.209,233.743c-1.088,1.835-1.632,4.054-1.632,6.656v0.128
		c2.517-0.597,4.501-1.493,5.951-2.688c1.449-1.194,2.177-2.581,2.177-4.16c0-0.81-0.225-1.461-0.673-1.952
		c-0.447-0.49-1.057-0.736-1.823-0.736C672.63,230.991,671.297,231.909,670.209,233.743z"/>
</g>
</svg>
