<?xml version="1.0" encoding="utf-8"?>
<!-- Generator: Adobe Illustrator 16.0.4, SVG Export Plug-In . SVG Version: 6.00 Build 0)  -->
<!DOCTYPE svg PUBLIC "-//W3C//DTD SVG 1.1//EN" "http://www.w3.org/Graphics/SVG/1.1/DTD/svg11.dtd">
<svg version="1.1" id="Layer_1" xmlns="http://www.w3.org/2000/svg" xmlns:xlink="http://www.w3.org/1999/xlink" x="0px" y="0px"
	 width="361.382px" height="90.279px" viewBox="325.615 193.885 361.382 90.279"
	 enable-background="new 325.615 193.885 361.382 90.279" xml:space="preserve">
	
	
		<style type="text/css">
			.logo{
				stroke-dasharray: 400;
				stroke-dashofffset:0;
				-webkit-animation: dash 10s linear forwards; /*safari / chrome*/
				-o-animation: dash 10s linear forwards; /* oprah */
				-moz-animation: dash 10s linear forwards; /* mozzilla firefox */
				animation: dash 10s linear forwards; /* IE 8 */
				/*-webkit-animation-delay: 2s; /* Safari 4.0 - 8.0 */
    			/*animation-delay: 2s;*/
			}
			@-webkit-keyframes dash{
				0%{
					stroke-dashoffset: 400;
				}
				40%{
					stroke-dashoffset: 400;
				}
				50%{
					fill: white;
				}
				100%{
					stroke-dashoffset: 0;
					fill: #FF8C00;
				}
			}
			@keyframes dash{
				0%{
					stroke-dashoffset: 400;
				}
				40%{
					stroke-dashoffset: 400;
				}
				50%{
					fill: white;
				}
				100%{
					stroke-dashoffset: 0;
					fill: #FF8C00;
				}
			}
			
		</style>
	
	
<g>
	<path class="logo" fill="none" stroke="#FF8C00" stroke-linecap="round" stroke-dasharray="6000" d="M358.983,241.039
		c0.32,0.512,0.479,1.216,0.479,2.11c0,1.707-0.404,3.031-1.215,3.97c-1.836,2.262-3.84,4.116-6.018,5.567
		c-2.176,1.451-4.672,2.176-7.486,2.176c-8.705,0-13.059-6.121-13.059-18.367c0-1.877,0.063-3.776,0.19-5.696h-2.496
		c-1.278,0-2.144-0.234-2.592-0.703c-0.447-0.47-0.672-1.217-0.672-2.24c0-2.39,0.961-3.584,2.881-3.584h3.647
		c0.726-4.691,1.834-8.979,3.328-12.862c1.492-3.884,3.295-6.978,5.406-9.28c2.113-2.304,4.385-3.456,6.816-3.456
		c1.793,0,3.199,0.79,4.225,2.368c1.021,1.579,1.535,3.562,1.535,5.952c0,6.612-2.773,12.374-8.318,17.278h7.168
		c0.682,0,1.172,0.149,1.471,0.447c0.3,0.299,0.449,0.854,0.449,1.664c0,2.944-2.412,4.416-7.231,4.416h-7.81
		c-0.086,2.135-0.127,3.799-0.127,4.992c0,4.438,0.521,7.552,1.566,9.344s2.699,2.688,4.961,2.688c1.834,0,3.455-0.555,4.863-1.664
		c1.406-1.109,3.07-2.773,4.99-4.992c0.514-0.598,1.09-0.896,1.729-0.896C358.226,240.271,358.664,240.527,358.983,241.039z
		 M344.328,207.215c-0.791,1.6-1.537,3.819-2.24,6.656c-0.705,2.838-1.291,5.983-1.76,9.438c2.516-2.177,4.403-4.617,5.664-7.328
		c1.258-2.709,1.887-5.172,1.887-7.393c0-2.518-0.469-3.775-1.405-3.775C345.832,204.814,345.117,205.615,344.328,207.215z"/>
	<path class="logo" fill="none" stroke="#FF8C00" stroke-linecap="round" stroke-dasharray="6000" d="M358.662,252.975
		c-1.771-1.258-3.104-2.912-4-4.959c-0.896-2.049-1.345-4.246-1.345-6.593c0-3.241,0.607-6.133,1.824-8.672
		c1.217-2.538,2.869-4.522,4.961-5.952c2.09-1.429,4.437-2.144,7.039-2.144c2.519,0,4.672,0.63,6.465,1.888
		c1.791,1.259,3.136,2.912,4.031,4.96c0.896,2.048,1.344,4.246,1.344,6.593c0,3.242-0.619,6.133-1.854,8.672
		c-1.237,2.539-2.912,4.522-5.022,5.951c-2.111,1.43-4.449,2.146-7.008,2.146C362.576,254.863,360.433,254.234,358.662,252.975z
		 M369.478,245.583c1.002-1.578,1.504-3.882,1.504-6.912c0-2.346-0.426-4.116-1.278-5.312c-0.854-1.193-1.879-1.793-3.072-1.793
		c-1.536,0-2.807,0.779-3.809,2.336c-1.003,1.56-1.505,3.873-1.505,6.945c0,2.432,0.427,4.223,1.281,5.375
		c0.853,1.151,1.92,1.729,3.199,1.729C367.248,247.951,368.476,247.162,369.478,245.583z"/>
	<path class="logo" fill="none" stroke="#FF8C00" stroke-linecap="round" stroke-dasharray="6000" d="M401.349,252.303
		c-0.662-1.705-0.992-4.437-0.992-8.191c0-5.547,0.789-10.814,2.369-15.809c0.383-1.236,1.012-2.144,1.887-2.72
		s2.103-0.864,3.681-0.864c0.854,0,1.451,0.107,1.793,0.32c0.34,0.214,0.513,0.619,0.513,1.216c0,0.683-0.32,2.22-0.959,4.607
		c-0.429,1.707-0.771,3.188-1.023,4.447c-0.258,1.26-0.471,2.828-0.641,4.705c1.149-3.328,2.526-6.146,4.127-8.449
		c1.602-2.303,3.241-4.021,4.929-5.15c1.687-1.13,3.272-1.696,4.769-1.696c1.494,0,2.549,0.342,3.168,1.024
		c0.619,0.682,0.929,1.728,0.929,3.136c0,1.366-0.404,3.84-1.216,7.424c-0.342,1.536-0.575,2.688-0.705,3.456
		c2.136-5.248,4.503-9.065,7.105-11.456c2.602-2.389,5.033-3.584,7.295-3.584c2.773,0,4.16,1.387,4.16,4.16
		c0,1.664-0.471,4.672-1.408,9.022c-0.811,3.714-1.215,6.166-1.215,7.361c0,1.707,0.617,2.561,1.854,2.561
		c0.854,0,1.866-0.522,3.04-1.568c1.173-1.045,2.74-2.741,4.703-5.088c0.515-0.598,1.088-0.896,1.73-0.896
		c0.553,0,0.99,0.256,1.311,0.769c0.321,0.512,0.48,1.216,0.48,2.11c0,1.707-0.406,3.031-1.215,3.97
		c-1.836,2.262-3.812,4.116-5.922,5.567c-2.111,1.451-4.515,2.176-7.199,2.176c-2.181,0-3.818-0.629-4.933-1.889
		c-1.104-1.259-1.664-3.082-1.664-5.473c0-1.193,0.304-3.328,0.896-6.398c0.555-2.688,0.832-4.545,0.832-5.567
		c0-0.683-0.234-1.023-0.703-1.023c-0.555,0-1.344,0.715-2.369,2.146c-1.02,1.43-2.047,3.315-3.069,5.661
		c-1.021,2.35-1.855,4.822-2.494,7.427c-0.474,2.048-1.019,3.414-1.636,4.096c-0.616,0.684-1.606,1.024-2.977,1.024
		c-1.407,0-2.463-0.674-3.168-2.018c-0.703-1.345-1.056-2.977-1.056-4.896c0-1.621,0.214-3.971,0.64-7.04
		c0.343-2.729,0.513-4.521,0.513-5.376c0-0.684-0.234-1.022-0.703-1.022c-0.642,0-1.451,0.769-2.433,2.303
		c-0.981,1.537-1.933,3.5-2.849,5.89c-0.918,2.39-1.653,4.735-2.209,7.04c-0.469,2.006-1.014,3.359-1.631,4.062
		c-0.619,0.703-1.59,1.058-2.912,1.058C403.151,254.863,402.009,254.01,401.349,252.303z"/>
	<path class="logo" fill="none" stroke="#FF8C00" stroke-linecap="round" stroke-dasharray="6000" d="M472.292,225.104
		c0.385,0.256,0.576,0.685,0.576,1.279c0,1.024-0.56,4.672-1.664,10.944c-0.982,6.016-1.562,9.579-1.73,10.688
		c-1.577,10.965-3.754,19.646-6.524,26.047c-2.775,6.398-6.465,9.603-11.072,9.603c-2.176,0-3.947-0.672-5.311-2.019
		c-1.365-1.347-2.052-3.104-2.052-5.278c0-2.007,0.457-4.056,1.375-6.146c0.918-2.092,2.625-4.49,5.121-7.199
		c2.496-2.711,6.025-5.813,10.593-9.312l0.19-1.474c0.299-1.576,0.641-3.84,1.025-6.782c-0.855,3.071-2.052,5.407-3.584,7.008
		c-1.537,1.6-3.158,2.399-4.865,2.399c-1.92,0-3.488-0.885-4.703-2.655c-1.217-1.771-1.824-3.979-1.824-6.624
		c0-3.2,0.213-6.133,0.644-8.8c0.426-2.666,1.131-5.493,2.108-8.48c0.427-1.279,1.023-2.197,1.791-2.752
		c0.771-0.554,1.984-0.832,3.648-0.832c0.938,0,1.59,0.15,1.953,0.448c0.358,0.299,0.543,0.747,0.543,1.344
		c0,0.343-0.234,1.494-0.703,3.456c-0.428,1.579-0.771,3.008-1.025,4.288c-0.342,1.75-0.639,3.424-0.895,5.023
		c-0.258,1.601-0.388,2.912-0.388,3.937c0,1.622,0.449,2.432,1.347,2.432c0.641,0,1.438-0.64,2.397-1.92
		c0.961-1.277,1.984-3.221,3.072-5.824c1.088-2.602,2.146-5.801,3.168-9.6c0.342-1.279,0.865-2.197,1.568-2.752
		c0.703-0.554,1.76-0.832,3.168-0.832C471.226,224.719,471.908,224.848,472.292,225.104z M456.166,273.743
		c1.322-2.477,2.645-6.594,3.967-12.354c-3.285,2.772-5.664,5.301-7.135,7.584c-1.473,2.281-2.209,4.276-2.209,5.983
		c0,0.726,0.139,1.321,0.416,1.792s0.736,0.704,1.377,0.704C453.646,277.455,454.841,276.217,456.166,273.743z"/>
	<path class="logo" fill="none" stroke="#FF8C00" stroke-linecap="round" stroke-dasharray="6000" d="M541.923,235.023
		c0.644,0,1.131,0.213,1.476,0.641c0.34,0.427,0.512,1.003,0.512,1.728c0,1.323-0.256,2.358-0.771,3.104
		c-0.512,0.747-1.278,1.291-2.305,1.632c-1.963,0.641-4.053,0.96-6.271,0.96c-1.882,0-3.646-0.256-5.312-0.77
		c-1.238,2.008-2.604,4.076-4.096,6.209c-1.707,2.433-3.17,4.097-4.39,4.992c-1.217,0.896-2.592,1.344-4.129,1.344
		c-1.707,0-2.998-0.66-3.871-1.983c-0.875-1.322-1.42-3.498-1.633-6.527l-0.315-4.672c-1.322,3.584-2.511,6.314-3.556,8.191
		c-1.047,1.878-2.092,3.179-3.137,3.903c-1.045,0.726-2.27,1.089-3.68,1.089c-1.75,0-3.125-0.683-4.127-2.05
		c-1.004-1.363-1.633-3.521-1.892-6.463c-0.512-5.975-0.768-11.201-0.768-15.682v-2.238c0.041-1.408,0.426-2.391,1.147-2.945
		c0.729-0.553,1.812-0.83,3.269-0.83c1.104,0,1.93,0.244,2.463,0.734s0.801,1.312,0.801,2.465c0,4.906,0.299,11.285,0.896,19.137
		c2.896-6.102,5.562-12.458,8-19.072c0.469-1.28,1.028-2.145,1.69-2.592c0.66-0.448,1.461-0.672,2.4-0.672
		c1.152,0,1.951,0.234,2.4,0.703c0.444,0.471,0.672,1.303,0.672,2.496c0,4.906,0.297,11.285,0.895,19.137
		c2.562-3.799,4.48-6.826,5.762-9.09c-0.641-1.235-0.961-2.709-0.961-4.416c0-1.448,0.32-2.856,0.961-4.223
		c0.644-1.367,1.519-2.476,2.623-3.328c1.109-0.854,2.367-1.28,3.775-1.28c1.238,0,2.24,0.438,3.008,1.312
		c0.771,0.875,1.152,2.145,1.152,3.809c0,1.92-0.512,4.117-1.535,6.594c1.621-0.085,3.775-0.405,6.463-0.96l1.73-0.32
		C541.412,235.045,541.625,235.023,541.923,235.023z"/>
	<path class="logo" fill="none" stroke="#FF8C00" stroke-linecap="round" stroke-dasharray="6000" d="M568.195,241.039
		c0.317,0.512,0.479,1.216,0.479,2.11c0,1.707-0.406,3.031-1.215,3.97c-1.58,1.92-3.809,3.69-6.689,5.312
		c-2.879,1.62-5.963,2.432-9.243,2.432c-4.48,0-7.959-1.217-10.437-3.647c-2.477-2.431-3.713-5.76-3.713-9.984
		c0-2.941,0.619-5.685,1.855-8.224c1.235-2.538,2.952-4.554,5.149-6.048c2.197-1.493,4.685-2.24,7.457-2.24
		c2.475,0,4.457,0.736,5.951,2.208s2.24,3.468,2.24,5.984c0,2.943-1.062,5.472-3.168,7.584c-2.111,2.111-5.689,3.787-10.726,5.023
		c1.066,1.963,3.096,2.942,6.08,2.942c1.92,0,4.107-0.672,6.562-2.018c2.453-1.344,4.575-3.104,6.366-5.278
		c0.515-0.599,1.089-0.896,1.729-0.896C567.438,240.271,567.876,240.527,568.195,241.039z M546.755,233.743
		c-1.088,1.835-1.631,4.054-1.631,6.654v0.129c2.516-0.598,4.5-1.492,5.951-2.688c1.449-1.194,2.176-2.581,2.176-4.159
		c0-0.811-0.225-1.462-0.672-1.953c-0.447-0.49-1.057-0.733-1.824-0.733C549.177,230.991,547.843,231.909,546.755,233.743z"/>
	<path class="logo" fill="none" stroke="#FF8C00" stroke-linecap="round" stroke-dasharray="6000" d="M566.851,249.936
		c-1.938-3.285-2.909-8.043-2.909-14.271c0-5.504,0.682-11.488,2.049-17.952c1.361-6.464,3.356-11.968,5.979-16.512
		c2.625-4.545,5.75-6.816,9.377-6.816c1.961,0,3.541,0.845,4.736,2.528c1.193,1.688,1.791,3.872,1.791,6.561
		c0,3.5-0.662,6.978-1.984,10.433c-1.319,3.457-3.52,7.084-6.592,10.881c2.09,0.171,3.914,0.875,5.476,2.11
		c1.557,1.237,2.752,2.838,3.584,4.802c0.83,1.963,1.246,4.096,1.246,6.399c0,3.198-0.632,6.078-1.89,8.64
		c-1.258,2.561-2.912,4.556-4.959,5.983c-2.049,1.43-4.246,2.146-6.592,2.146C571.896,254.863,568.792,253.221,566.851,249.936z
		 M580.099,245.583c1.002-1.578,1.505-3.882,1.505-6.912c0-2.346-0.429-4.116-1.277-5.312c-0.855-1.193-1.879-1.793-3.072-1.793
		c-1.494,0-2.752,0.77-3.777,2.306c-1.02,1.536-1.53,3.774-1.53,6.72c0,2.56,0.426,4.427,1.274,5.601
		c0.855,1.176,1.92,1.762,3.201,1.762C577.869,247.951,579.095,247.162,580.099,245.583z M579.138,215.471
		c1.688-3.945,2.529-7.455,2.529-10.527c0-1.363-0.16-2.408-0.479-3.137c-0.318-0.725-0.759-1.088-1.312-1.088
		c-0.854,0-1.783,1.271-2.785,3.809c-1.002,2.539-1.93,5.984-2.783,10.338c-0.854,4.352-1.493,9.107-1.92,14.271
		C575.203,223.973,577.453,219.418,579.138,215.471z"/>
	<path class="logo" fill="none" stroke="#FF8C00" stroke-linecap="round" stroke-dasharray="6000" d="M600.386,254.734
		c-1.174-1.022-1.76-2.176-1.76-3.455c0-1.108,0.406-2.068,1.217-2.881c0.812-0.811,2.004-1.215,3.584-1.215
		c0.558,0,1.205,0.053,1.951,0.158c0.746,0.107,1.311,0.184,1.697,0.225c-0.043-1.107-0.289-2.152-0.736-3.135
		c-0.449-0.98-1.014-1.932-1.697-2.85c-0.682-0.917-1.319-1.717-1.92-2.398c-1.319,2.519-2.635,4.606-3.936,6.271
		s-2.719,3.243-4.256,4.734c-0.771,0.77-1.578,1.151-2.437,1.151c-0.684,0-1.233-0.245-1.664-0.735
		c-0.426-0.488-0.641-1.099-0.641-1.822c0-0.854,0.299-1.645,0.896-2.368l0.832-1.023c2.347-2.899,4.115-5.289,5.312-7.168
		c0.725-1.236,1.578-2.891,2.561-4.959c0.98-2.07,1.939-4.215,2.881-6.434c0.812-1.877,2.496-2.814,5.058-2.814
		c1.192,0,2.024,0.105,2.496,0.318c0.469,0.214,0.703,0.557,0.703,1.022c0,0.258-0.086,0.662-0.257,1.218
		c-0.172,0.555-0.405,1.108-0.702,1.663c-0.771,1.535-1.152,2.839-1.152,3.902c0,0.643,0.223,1.344,0.672,2.112
		c0.447,0.769,1.143,1.728,2.08,2.88c1.365,1.793,2.4,3.318,3.104,4.576c0.703,1.26,1.06,2.635,1.06,4.128
		c0,0.427-0.043,1.023-0.129,1.792c2.09-0.812,4.545-2.965,7.358-6.464c0.515-0.598,1.091-0.896,1.729-0.896
		c0.555,0,0.992,0.256,1.311,0.769c0.319,0.512,0.48,1.216,0.48,2.11c0,1.623-0.406,2.945-1.215,3.97
		c-2.138,2.646-4.172,4.446-6.113,5.407c-1.939,0.959-4.342,1.481-7.199,1.567c-1.707,1.449-3.731,2.177-6.08,2.177
		C603.255,256.271,601.56,255.759,600.386,254.734z"/>
	<path class="logo" fill="none" stroke="#FF8C00" stroke-linecap="round" stroke-dasharray="6000" d="M622.722,251.919
		c-1.26-1.962-1.889-4.565-1.889-7.809c0-1.92,0.246-4.385,0.736-7.394c0.487-3.008,1.121-5.812,1.889-8.416
		c0.383-1.364,0.896-2.304,1.535-2.815c0.64-0.511,1.664-0.769,3.072-0.769c2.176,0,3.264,0.728,3.264,2.177
		c0,1.066-0.406,3.543-1.215,7.424c-1.025,4.695-1.537,7.873-1.537,9.537c0,1.278,0.17,2.263,0.512,2.942
		c0.342,0.685,0.918,1.023,1.73,1.023c0.768,0,1.727-0.532,2.879-1.602c1.149-1.063,2.688-2.752,4.604-5.056
		c0.517-0.598,1.09-0.896,1.73-0.896c0.555,0,0.992,0.256,1.311,0.769c0.32,0.512,0.48,1.216,0.48,2.11
		c0,1.707-0.406,3.031-1.217,3.97c-4.228,5.161-8.171,7.743-11.841,7.743C625.996,254.863,623.98,253.882,622.722,251.919z
		 M625.25,219.247c-0.896-0.832-1.344-1.994-1.344-3.488c0-1.493,0.586-2.741,1.76-3.743s2.635-1.505,4.385-1.505
		c1.578,0,2.857,0.384,3.84,1.152c0.98,0.769,1.478,1.855,1.478,3.264c0,1.707-0.56,3.062-1.664,4.064
		c-1.111,1.003-2.582,1.504-4.416,1.504C627.49,220.495,626.146,220.079,625.25,219.247z"/>
	<path class="logo" fill="none" stroke="#FF8C00" stroke-linecap="round" stroke-dasharray="6000" d="M666.498,241.039
		c0.32,0.512,0.479,1.216,0.479,2.11c0,1.707-0.401,3.031-1.217,3.97c-1.834,2.262-3.84,4.116-6.016,5.567s-4.672,2.176-7.488,2.176
		c-8.703,0-13.057-6.121-13.057-18.367c0-1.877,0.062-3.776,0.19-5.696h-2.495c-1.279,0-2.146-0.234-2.593-0.703
		c-0.446-0.47-0.672-1.217-0.672-2.24c0-2.39,0.959-3.584,2.879-3.584h3.648c0.725-4.691,1.834-8.979,3.328-12.862
		c1.492-3.884,3.295-6.978,5.403-9.28c2.111-2.304,4.388-3.456,6.814-3.456c1.793,0,3.201,0.79,4.225,2.368
		c1.023,1.579,1.537,3.562,1.537,5.952c0,6.612-2.771,12.374-8.317,17.278h7.17c0.682,0,1.172,0.149,1.471,0.447
		c0.299,0.299,0.449,0.854,0.449,1.664c0,2.944-2.412,4.416-7.232,4.416h-7.809c-0.086,2.135-0.127,3.799-0.127,4.992
		c0,4.438,0.52,7.552,1.563,9.344s2.697,2.688,4.959,2.688c1.834,0,3.457-0.555,4.865-1.664c1.406-1.109,3.07-2.773,4.99-4.992
		c0.514-0.598,1.088-0.896,1.729-0.896C665.74,240.271,666.177,240.527,666.498,241.039z M651.841,207.215
		c-0.789,1.6-1.535,3.819-2.24,6.656c-0.7,2.838-1.291,5.983-1.76,9.438c2.521-2.177,4.404-4.617,5.664-7.328
		c1.258-2.709,1.889-5.172,1.889-7.393c0-2.518-0.471-3.775-1.405-3.775C653.345,204.814,652.63,205.615,651.841,207.215z"/>
	<path class="logo" fill="none" stroke="#FF8C00" stroke-linecap="round" stroke-dasharray="6000" d="M686.017,242.959
		c0.32,0.512,0.48,1.216,0.48,2.11c0,1.537-0.363,2.859-1.088,3.97c-1.195,1.835-2.769,3.264-4.705,4.288
		c-1.941,1.023-4.256,1.535-6.943,1.535c-4.096,0-7.272-1.228-9.537-3.68c-2.262-2.453-3.391-5.771-3.391-9.953
		c0-2.942,0.617-5.686,1.854-8.225c1.235-2.538,2.952-4.554,5.151-6.048c2.197-1.493,4.683-2.24,7.455-2.24
		c2.475,0,4.459,0.736,5.953,2.208c1.492,1.473,2.238,3.469,2.238,5.984c0,2.942-1.06,5.472-3.168,7.584
		c-2.111,2.11-5.707,3.786-10.783,5.022c1.02,1.963,2.752,2.943,5.184,2.943c1.75,0,3.189-0.404,4.32-1.216
		c1.131-0.811,2.438-2.178,3.936-4.098c0.515-0.641,1.091-0.959,1.73-0.959C685.259,242.191,685.697,242.448,686.017,242.959z
		 M670.208,233.743c-1.088,1.835-1.631,4.054-1.631,6.654v0.129c2.516-0.598,4.5-1.492,5.951-2.688
		c1.444-1.194,2.176-2.581,2.176-4.159c0-0.811-0.225-1.462-0.672-1.953c-0.447-0.49-1.062-0.733-1.824-0.733
		C672.63,230.991,671.296,231.909,670.208,233.743z"/>
</g>
</svg>
